<mxfile host="app.diagrams.net" agent="Mozilla/5.0 (Windows NT 10.0; Win64; x64) AppleWebKit/537.36 (KHTML, like Gecko) Chrome/130.0.0.0 YaBrowser/24.12.0.0 Safari/537.36" version="25.0.3">
  <diagram name="Страница — 1" id="Qg7TNX0esdktX7MQRUZs">
    <mxGraphModel dx="1687" dy="975" grid="1" gridSize="10" guides="1" tooltips="1" connect="1" arrows="1" fold="1" page="1" pageScale="1" pageWidth="827" pageHeight="900" math="0" shadow="0">
      <root>
        <mxCell id="0" />
        <mxCell id="1" parent="0" />
        <mxCell id="mC3Z1bk-kpkZX3rgGwqh-1" style="edgeStyle=orthogonalEdgeStyle;rounded=0;orthogonalLoop=1;jettySize=auto;html=1;endArrow=diamondThin;endFill=0;" edge="1" parent="1" source="b8q81cn3WwMqUTTSJ5ZS-9" target="b8q81cn3WwMqUTTSJ5ZS-13">
          <mxGeometry relative="1" as="geometry" />
        </mxCell>
        <mxCell id="b8q81cn3WwMqUTTSJ5ZS-9" value="Client" style="swimlane;fontStyle=1;align=center;verticalAlign=top;childLayout=stackLayout;horizontal=1;startSize=26;horizontalStack=0;resizeParent=1;resizeParentMax=0;resizeLast=0;collapsible=1;marginBottom=0;whiteSpace=wrap;html=1;" parent="1" vertex="1">
          <mxGeometry x="334" y="40" width="160" height="190" as="geometry" />
        </mxCell>
        <mxCell id="b8q81cn3WwMqUTTSJ5ZS-10" value="&lt;div&gt;- ClientID: int&lt;/div&gt;&lt;div&gt;- LastName: string&lt;/div&gt;&lt;div&gt;- FirstName: str&lt;span style=&quot;background-color: initial;&quot;&gt;ing&lt;/span&gt;&lt;/div&gt;&lt;div&gt;- MiddleName: str&lt;span style=&quot;background-color: initial;&quot;&gt;ing&lt;/span&gt;&lt;/div&gt;&lt;div&gt;&lt;span style=&quot;background-color: initial;&quot;&gt;- Address: str&lt;/span&gt;&lt;span style=&quot;background-color: initial;&quot;&gt;ing&lt;/span&gt;&lt;/div&gt;&lt;div&gt;- Phone: str&lt;span style=&quot;background-color: initial;&quot;&gt;ing&lt;/span&gt;&lt;/div&gt;" style="text;strokeColor=none;fillColor=none;align=left;verticalAlign=top;spacingLeft=4;spacingRight=4;overflow=hidden;rotatable=0;points=[[0,0.5],[1,0.5]];portConstraint=eastwest;whiteSpace=wrap;html=1;" parent="b8q81cn3WwMqUTTSJ5ZS-9" vertex="1">
          <mxGeometry y="26" width="160" height="94" as="geometry" />
        </mxCell>
        <mxCell id="b8q81cn3WwMqUTTSJ5ZS-11" value="" style="line;strokeWidth=1;fillColor=none;align=left;verticalAlign=middle;spacingTop=-1;spacingLeft=3;spacingRight=3;rotatable=0;labelPosition=right;points=[];portConstraint=eastwest;strokeColor=inherit;" parent="b8q81cn3WwMqUTTSJ5ZS-9" vertex="1">
          <mxGeometry y="120" width="160" height="10" as="geometry" />
        </mxCell>
        <mxCell id="b8q81cn3WwMqUTTSJ5ZS-12" value="+ __init__()&lt;div&gt;+ to_dict(): dict&lt;div&gt;+ from_dict(): Client&lt;/div&gt;&lt;/div&gt;" style="text;strokeColor=none;fillColor=none;align=left;verticalAlign=top;spacingLeft=4;spacingRight=4;overflow=hidden;rotatable=0;points=[[0,0.5],[1,0.5]];portConstraint=eastwest;whiteSpace=wrap;html=1;" parent="b8q81cn3WwMqUTTSJ5ZS-9" vertex="1">
          <mxGeometry y="130" width="160" height="60" as="geometry" />
        </mxCell>
        <mxCell id="b8q81cn3WwMqUTTSJ5ZS-13" value="ClientRepBase" style="swimlane;fontStyle=1;align=center;verticalAlign=top;childLayout=stackLayout;horizontal=1;startSize=26;horizontalStack=0;resizeParent=1;resizeParentMax=0;resizeLast=0;collapsible=1;marginBottom=0;whiteSpace=wrap;html=1;" parent="1" vertex="1">
          <mxGeometry x="289" y="320" width="250" height="270" as="geometry" />
        </mxCell>
        <mxCell id="b8q81cn3WwMqUTTSJ5ZS-14" value="- file_path: str&lt;div&gt;- clients: list[Client]&lt;/div&gt;" style="text;strokeColor=none;fillColor=none;align=left;verticalAlign=top;spacingLeft=4;spacingRight=4;overflow=hidden;rotatable=0;points=[[0,0.5],[1,0.5]];portConstraint=eastwest;whiteSpace=wrap;html=1;" parent="b8q81cn3WwMqUTTSJ5ZS-13" vertex="1">
          <mxGeometry y="26" width="250" height="44" as="geometry" />
        </mxCell>
        <mxCell id="b8q81cn3WwMqUTTSJ5ZS-15" value="" style="line;strokeWidth=1;fillColor=none;align=left;verticalAlign=middle;spacingTop=-1;spacingLeft=3;spacingRight=3;rotatable=0;labelPosition=right;points=[];portConstraint=eastwest;strokeColor=inherit;" parent="b8q81cn3WwMqUTTSJ5ZS-13" vertex="1">
          <mxGeometry y="70" width="250" height="8" as="geometry" />
        </mxCell>
        <mxCell id="b8q81cn3WwMqUTTSJ5ZS-16" value="&lt;div&gt;+ load_data(): void&lt;/div&gt;&lt;div&gt;&lt;span style=&quot;background-color: initial;&quot;&gt;+ save_data(): void&lt;/span&gt;&lt;/div&gt;&lt;div&gt;&lt;span style=&quot;background-color: initial;&quot;&gt;+ get_by_id(client_id: int): Client&lt;/span&gt;&lt;/div&gt;&lt;div&gt;&lt;span style=&quot;background-color: initial;&quot;&gt;+ get_k_n_short_list(k: int, n: int): list[Client]&lt;/span&gt;&lt;/div&gt;&lt;div&gt;+ sort_by_last_name(): void&lt;/div&gt;&lt;div&gt;+ add(client: Client): void&lt;/div&gt;&lt;div&gt;+ replace_by_id(client_id: int, updated_client: Client): bool&lt;/div&gt;&lt;div&gt;+ delete_by_id(client_id: int): bool&lt;/div&gt;&lt;div&gt;+ get_count(): int&lt;/div&gt;&lt;div&gt;+ display_all(): void&lt;/div&gt;" style="text;strokeColor=none;fillColor=none;align=left;verticalAlign=top;spacingLeft=4;spacingRight=4;overflow=hidden;rotatable=0;points=[[0,0.5],[1,0.5]];portConstraint=eastwest;whiteSpace=wrap;html=1;" parent="b8q81cn3WwMqUTTSJ5ZS-13" vertex="1">
          <mxGeometry y="78" width="250" height="192" as="geometry" />
        </mxCell>
        <mxCell id="mC3Z1bk-kpkZX3rgGwqh-10" style="edgeStyle=orthogonalEdgeStyle;rounded=0;orthogonalLoop=1;jettySize=auto;html=1;" edge="1" parent="1" source="mC3Z1bk-kpkZX3rgGwqh-2" target="b8q81cn3WwMqUTTSJ5ZS-13">
          <mxGeometry relative="1" as="geometry">
            <Array as="points">
              <mxPoint x="254" y="625" />
              <mxPoint x="360" y="625" />
            </Array>
          </mxGeometry>
        </mxCell>
        <mxCell id="mC3Z1bk-kpkZX3rgGwqh-2" value="ClientRepJSON" style="swimlane;fontStyle=1;align=center;verticalAlign=top;childLayout=stackLayout;horizontal=1;startSize=26;horizontalStack=0;resizeParent=1;resizeParentMax=0;resizeLast=0;collapsible=1;marginBottom=0;whiteSpace=wrap;html=1;" vertex="1" parent="1">
          <mxGeometry x="174" y="660" width="160" height="80" as="geometry" />
        </mxCell>
        <mxCell id="mC3Z1bk-kpkZX3rgGwqh-4" value="" style="line;strokeWidth=1;fillColor=none;align=left;verticalAlign=middle;spacingTop=-1;spacingLeft=3;spacingRight=3;rotatable=0;labelPosition=right;points=[];portConstraint=eastwest;strokeColor=inherit;" vertex="1" parent="mC3Z1bk-kpkZX3rgGwqh-2">
          <mxGeometry y="26" width="160" height="8" as="geometry" />
        </mxCell>
        <mxCell id="mC3Z1bk-kpkZX3rgGwqh-5" value="&lt;div&gt;+ load_data(): void&lt;/div&gt;&lt;div&gt;+ save_data(): void&lt;/div&gt;" style="text;strokeColor=none;fillColor=none;align=left;verticalAlign=top;spacingLeft=4;spacingRight=4;overflow=hidden;rotatable=0;points=[[0,0.5],[1,0.5]];portConstraint=eastwest;whiteSpace=wrap;html=1;" vertex="1" parent="mC3Z1bk-kpkZX3rgGwqh-2">
          <mxGeometry y="34" width="160" height="46" as="geometry" />
        </mxCell>
        <mxCell id="mC3Z1bk-kpkZX3rgGwqh-9" style="edgeStyle=orthogonalEdgeStyle;rounded=0;orthogonalLoop=1;jettySize=auto;html=1;" edge="1" parent="1" source="mC3Z1bk-kpkZX3rgGwqh-6" target="b8q81cn3WwMqUTTSJ5ZS-13">
          <mxGeometry relative="1" as="geometry">
            <Array as="points">
              <mxPoint x="574" y="625" />
              <mxPoint x="460" y="625" />
            </Array>
          </mxGeometry>
        </mxCell>
        <mxCell id="mC3Z1bk-kpkZX3rgGwqh-6" value="ClientRepYAML" style="swimlane;fontStyle=1;align=center;verticalAlign=top;childLayout=stackLayout;horizontal=1;startSize=26;horizontalStack=0;resizeParent=1;resizeParentMax=0;resizeLast=0;collapsible=1;marginBottom=0;whiteSpace=wrap;html=1;" vertex="1" parent="1">
          <mxGeometry x="494" y="660" width="160" height="80" as="geometry" />
        </mxCell>
        <mxCell id="mC3Z1bk-kpkZX3rgGwqh-7" value="" style="line;strokeWidth=1;fillColor=none;align=left;verticalAlign=middle;spacingTop=-1;spacingLeft=3;spacingRight=3;rotatable=0;labelPosition=right;points=[];portConstraint=eastwest;strokeColor=inherit;" vertex="1" parent="mC3Z1bk-kpkZX3rgGwqh-6">
          <mxGeometry y="26" width="160" height="8" as="geometry" />
        </mxCell>
        <mxCell id="mC3Z1bk-kpkZX3rgGwqh-8" value="&lt;div&gt;+ load_data(): void&lt;/div&gt;&lt;div&gt;+ save_data(): void&lt;/div&gt;" style="text;strokeColor=none;fillColor=none;align=left;verticalAlign=top;spacingLeft=4;spacingRight=4;overflow=hidden;rotatable=0;points=[[0,0.5],[1,0.5]];portConstraint=eastwest;whiteSpace=wrap;html=1;" vertex="1" parent="mC3Z1bk-kpkZX3rgGwqh-6">
          <mxGeometry y="34" width="160" height="46" as="geometry" />
        </mxCell>
      </root>
    </mxGraphModel>
  </diagram>
</mxfile>
